<svg width="35" height="29" viewBox="0 0 35 29" fill="none" xmlns="http://www.w3.org/2000/svg">
<path d="M34.125 19.75H33.25V13.8383C33.25 13.1437 32.9711 12.4766 32.4789 11.9844L27.0156 6.52109C26.5234 6.02891 25.8563 5.75 25.1617 5.75H22.75V3.125C22.75 1.67578 21.5742 0.5 20.125 0.5H2.625C1.17578 0.5 0 1.67578 0 3.125V20.625C0 22.0742 1.17578 23.25 2.625 23.25H3.5C3.5 26.1484 5.85156 28.5 8.75 28.5C11.6484 28.5 14 26.1484 14 23.25H21C21 26.1484 23.3516 28.5 26.25 28.5C29.1484 28.5 31.5 26.1484 31.5 23.25H34.125C34.6063 23.25 35 22.8563 35 22.375V20.625C35 20.1437 34.6063 19.75 34.125 19.75ZM8.75 25.875C7.30078 25.875 6.125 24.6992 6.125 23.25C6.125 21.8008 7.30078 20.625 8.75 20.625C10.1992 20.625 11.375 21.8008 11.375 23.25C11.375 24.6992 10.1992 25.875 8.75 25.875ZM26.25 25.875C24.8008 25.875 23.625 24.6992 23.625 23.25C23.625 21.8008 24.8008 20.625 26.25 20.625C27.6992 20.625 28.875 21.8008 28.875 23.25C28.875 24.6992 27.6992 25.875 26.25 25.875ZM30.625 14.5H22.75V8.375H25.1617L30.625 13.8383V14.5Z" fill="#FFA900"/>
</svg>
